<svg
  xmlns="http://www.w3.org/2000/svg"
  xmlns:xlink="http://www.w3.org/1999/xlink"
  version="1.1"
  x="0px"
  y="0px"
  viewBox="0 0 53 66.25"
  enable-background="new 0 0 53 53"
  xml:space="preserve"
>
  <g>
    <path
      d="M52.92,0.62c-0.1-0.24-0.3-0.44-0.54-0.54C52.26,0.03,52.13,0,52,0H40c-0.55,0-1,0.45-1,1s0.45,1,1,1h9.59L33.29,18.29   c-0.39,0.39-0.39,1.02,0,1.41C33.49,19.9,33.74,20,34,20s0.51-0.1,0.71-0.29L51,3.41V13c0,0.55,0.45,1,1,1s1-0.45,1-1V1   C53,0.87,52.97,0.74,52.92,0.62z"
    />
    <path
      d="M18.29,33.29L2,49.59V40c0-0.55-0.45-1-1-1s-1,0.45-1,1v12c0,0.13,0.03,0.26,0.08,0.38c0.1,0.24,0.3,0.44,0.54,0.54   C0.74,52.97,0.87,53,1,53h12c0.55,0,1-0.45,1-1s-0.45-1-1-1H3.41l16.29-16.29c0.39-0.39,0.39-1.02,0-1.41S18.68,32.9,18.29,33.29z"
    />
    <path
      d="M1,14c0.55,0,1-0.45,1-1V3.41l16.29,16.29C18.49,19.9,18.74,20,19,20s0.51-0.1,0.71-0.29c0.39-0.39,0.39-1.02,0-1.41   L3.41,2H13c0.55,0,1-0.45,1-1s-0.45-1-1-1H1C0.87,0,0.74,0.03,0.62,0.08c-0.24,0.1-0.44,0.3-0.54,0.54C0.03,0.74,0,0.87,0,1v12   C0,13.55,0.45,14,1,14z"
    />
    <path
      d="M52,39c-0.55,0-1,0.45-1,1v9.59L34.71,33.29c-0.39-0.39-1.02-0.39-1.41,0s-0.39,1.02,0,1.41L49.59,51H40   c-0.55,0-1,0.45-1,1s0.45,1,1,1h12c0.13,0,0.26-0.03,0.38-0.08c0.24-0.1,0.44-0.3,0.54-0.54C52.97,52.26,53,52.13,53,52V40   C53,39.45,52.55,39,52,39z"
    />
  </g>
  
</svg>
